<mxfile host="app.diagrams.net" modified="2024-06-07T12:15:32.225Z" agent="Mozilla/5.0 (Windows NT 10.0; Win64; x64) AppleWebKit/537.36 (KHTML, like Gecko) Chrome/123.0.0.0 Safari/537.36 OPR/109.0.0.0" version="24.4.13" etag="3ygn1i6HsiOPlTRkH3a7" type="github">
  <diagram name="Сторінка-1" id="C008P2ddnlQ7HsGtk2Se">
    <mxGraphModel>
      <root>
        <mxCell id="0" />
        <mxCell id="1" parent="0" />
      </root>
    </mxGraphModel>
  </diagram>
</mxfile>
